Coordinates
version=1
nRows=17
nColumns=24
inDegrees=yes

Units are S.I. units (second, meters, Newtons, ...)
Angles are in degrees.

endheader
time	pelvis_tilt	pelvis_list	pelvis_rotation	pelvis_tx	pelvis_ty	pelvis_tz	hip_flexion_r	hip_adduction_r	hip_rotation_r	knee_angle_r	ankle_angle_r	subtalar_angle_r	mtp_angle_r	hip_flexion_l	hip_adduction_l	hip_rotation_l	knee_angle_l	ankle_angle_l	subtalar_angle_l	mtp_angle_l	lumbar_extension	lumbar_bending	lumbar_rotation
      4.18000000	     -7.23217261	      2.78398032	    -12.60063105	     -2.34346657	     -0.02171843	      0.46371692	     -5.97141736	     -0.95509979	     10.35204549	    -14.40491115	      4.20418651	      0.37195313	      5.90505209	     26.93278184	     -3.69853830	     -0.17894388	     -5.27474314	     -6.79851852	     -0.45860859	     13.13986121	      6.22544978	     -2.81585372	      9.49599162
      4.18500000	     -7.33148092	      2.91581543	    -12.74881312	     -2.33659761	     -0.02214467	      0.46309953	     -5.92948989	     -1.23976479	     10.28340777	    -15.00059305	      3.95781525	      0.84909563	      6.48998849	     26.98291131	     -3.53888373	     -0.13531927	     -5.83905689	     -6.73181260	     -0.38540456	     12.99925175	      6.49461925	     -2.89102791	      9.62874146
      4.19000000	     -7.33675350	      2.97585580	    -12.78650177	     -2.32973722	     -0.02249120	      0.46239796	     -6.03989501	     -1.43209029	     10.34704578	    -15.58812362	      3.56180556	      1.00408479	      6.59333767	     26.94391609	     -3.37065520	     -0.02668664	     -6.45247035	     -6.75580435	     -0.37533565	     13.04257681	      6.62978650	     -2.94498987	      9.62797206
      4.19500000	     -7.49354611	      3.11459834	    -12.83923421	     -2.32266818	     -0.02296886	      0.46163377	     -5.92646424	     -1.70726851	     10.19575632	    -16.21272545	      3.18596230	      1.43077406	      7.28094707	     27.05742487	     -3.15434258	     -0.05367780	     -7.10042802	     -6.78951460	     -0.25488028	     12.93607864	      6.97712506	     -3.03332840	      9.66944624
      4.20000000	     -7.58483948	      3.20983074	    -12.85627220	     -2.31561319	     -0.02336265	      0.46081669	     -5.88615300	     -1.93177152	     10.11478701	    -16.86537580	      2.68827545	      1.67038647	      7.72613493	     27.08058892	     -2.94554933	     -0.07574946	     -7.72674862	     -6.92485586	     -0.13978752	     12.91323507	      7.23203888	     -3.09492536	      9.68831788
      4.20500000	     -7.67452490	      3.32886781	    -12.86024253	     -2.30850093	     -0.02373941	      0.45995444	     -5.81429654	     -2.18164015	     10.01490695	    -17.57195354	      2.16247787	      1.92993363	      8.15990287	     27.08100134	     -2.70403490	     -0.16708958	     -8.30365232	     -7.18237909	     -0.00470699	     12.94418025	      7.49509322	     -3.18132337	      9.71176836
      4.21000000	     -7.77395911	      3.46763934	    -12.84482590	     -2.30136156	     -0.02409438	      0.45904391	     -5.69188870	     -2.44995323	      9.86392614	    -18.33459050	      1.58740020	      2.21075915	      8.64372930	     27.07719844	     -2.43775770	     -0.31517494	     -8.82708918	     -7.56737838	      0.17212820	     13.00449811	      7.77171953	     -3.28805619	      9.73050467
      4.21500000	     -7.87526687	      3.62786374	    -12.80758554	     -2.29421753	     -0.02439956	      0.45808256	     -5.52503492	     -2.73879953	      9.67633377	    -19.15350989	      0.94415601	      2.49475001	      9.16034199	     27.06171963	     -2.14379778	     -0.50796684	     -9.28332135	     -8.08572543	      0.39174321	     13.07707173	      8.05107974	     -3.42094052	      9.74790337
      4.22000000	     -7.97537066	      3.81392033	    -12.76007864	     -2.28707522	     -0.02464482	      0.45709823	     -5.31044231	     -3.05443837	      9.45135234	    -20.03283175	      0.22511539	      2.77917499	      9.72334783	     27.03505143	     -1.82513761	     -0.72897344	     -9.67757874	     -8.72163658	      0.64147828	     13.15099732	      8.33217147	     -3.58160452	      9.76291441
      4.22500000	     -8.08619553	      4.02220996	    -12.73412246	     -2.27997035	     -0.02484267	      0.45608594	     -5.00839921	     -3.39890998	      9.19242321	    -20.99628086	     -0.58184595	      3.08333440	     10.48428716	     27.00025695	     -1.49862817	     -0.94086731	     -9.99761910	     -9.43908599	      0.86622281	     13.24088688	      8.62501039	     -3.74998046	      9.76107339
      4.23000000	     -8.15677529	      4.25235675	    -12.63262813	     -2.27287134	     -0.02490563	      0.45504460	     -4.74315811	     -3.75545647	      8.92547683	    -21.97076210	     -1.51907484	      3.28018737	     11.02439414	     26.95276107	     -1.11350647	     -1.14244575	    -10.32981889	    -10.23226080	      1.12378658	     13.21928457	      8.87164839	     -3.97759917	      9.79635469
      4.23500000	     -8.26007967	      4.49838476	    -12.60817490	     -2.26581372	     -0.02495233	      0.45399229	     -4.33125889	     -4.14533572	      8.61944584	    -23.05539754	     -2.56775204	      3.54576428	     12.00094602	     26.91254632	     -0.74485783	     -1.26768208	    -10.61500196	    -11.01440623	      1.20910902	     13.11670430	      9.15561042	     -4.18167564	      9.81787883
      4.24000000	     -8.33674578	      4.72567825	    -12.53257297	     -2.25882001	     -0.02488729	      0.45290033	     -3.93082759	     -4.50530636	      8.32888979	    -24.14497400	     -3.82041274	      3.64657656	     13.02074181	     26.87372369	     -0.36089564	     -1.28515372	    -10.95960799	    -11.77434433	      1.19975719	     12.78570552	      9.38939080	     -4.38715867	      9.87241739
      4.24500000	     -8.38763040	      4.96149042	    -12.44722557	     -2.25185009	     -0.02475081	      0.45184593	     -3.50844064	     -4.86679005	      8.04689058	    -25.29207357	     -5.21022196	      3.66415751	     14.01125431	     26.82570855	      0.04342802	     -1.25247299	    -11.36131432	    -12.39438994	      1.12835603	     12.20688666	      9.59215554	     -4.61581905	      9.93779840
      4.25000000	     -8.42421629	      5.18995344	    -12.37484011	     -2.24490724	     -0.02457292	      0.45083279	     -3.03877522	     -5.21356686	      7.77789778	    -26.51283679	     -6.75312537	      3.60079029	     14.99498564	     26.76902979	      0.44277343	     -1.18111104	    -11.81541676	    -12.81402098	      0.95949548	     11.40629656	      9.77546490	     -4.84253586	     10.00028758
      4.25500000	     -8.44892210	      5.40128884	    -12.29842084	     -2.23802036	     -0.02436215	      0.44981173	     -2.53114729	     -5.53287606	      7.53414298	    -27.77962630	     -8.46904411	      3.42056600	     16.06767980	     26.71487983	      0.83566777	     -1.07641465	    -12.33951393	    -13.01129267	      0.72737087	     10.39981993	      9.92668713	     -5.04565347	     10.06043941
      4.26000000	     -8.44371296	      5.59682074	    -12.20241349	     -2.23119424	     -0.02413906	      0.44881582	     -2.00442391	     -5.82813924	      7.27266522	    -29.09619334	    -10.34087199	      3.11207504	     17.26898019	     26.65318103	      1.22528813	     -1.00118889	    -12.94806690	    -12.90886749	      0.54898450	      9.28390514	     10.02806975	     -5.25314050	     10.08319363
